 <svg width="78" height="60" viewBox="0 0 78 60" fill="none" xmlns="http://www.w3.org/2000/svg">
<path d="M59.8292 26.7628H52.8562C51.8683 26.7628 51.0409 26.4084 50.3738 25.6996C49.7067 24.9907 49.372 24.1146 49.3697 23.071C49.3674 22.0274 49.7021 21.1512 50.3738 20.4424C51.0455 19.7336 51.873 19.3791 52.8562 19.3791H59.8292V11.9955C59.8292 10.9494 60.1639 10.0732 60.8333 9.36686C61.5027 8.66049 62.3302 8.30607 63.3157 8.30361C64.3012 8.30115 65.1298 8.65557 65.8016 9.36686C66.4733 10.0782 66.8069 10.9544 66.8022 11.9955V19.3791H73.7752C74.7631 19.3791 75.5917 19.7336 76.2611 20.4424C76.9305 21.1512 77.2641 22.0274 77.2617 23.071C77.2594 24.1146 76.9247 24.992 76.2576 25.7033C75.5905 26.4146 74.7631 26.7678 73.7752 26.7628H66.8022V34.1465C66.8022 35.1925 66.4675 36.07 65.7981 36.7788C65.1287 37.4876 64.3012 37.8408 63.3157 37.8384C62.3302 37.8359 61.5027 37.4815 60.8333 36.7751C60.1639 36.0687 59.8292 35.1925 59.8292 34.1465V26.7628ZM28.4506 30.4547C24.6155 30.4547 21.3324 29.0087 18.6013 26.1168C15.8702 23.2248 14.5046 19.7483 14.5046 15.6873C14.5046 11.6263 15.8702 8.14979 18.6013 5.25784C21.3324 2.36589 24.6155 0.919922 28.4506 0.919922C32.2858 0.919922 35.5689 2.36589 38.3 5.25784C41.0311 8.14979 42.3967 11.6263 42.3967 15.6873C42.3967 19.7483 41.0311 23.2248 38.3 26.1168C35.5689 29.0087 32.2858 30.4547 28.4506 30.4547ZM0.558594 52.6057V49.6523C0.558594 47.5602 1.06762 45.638 2.08568 43.8856C3.10374 42.1332 4.45418 40.7943 6.137 39.8689C9.73973 37.9614 13.4006 36.5315 17.1195 35.579C20.8384 34.6265 24.6155 34.149 28.4506 34.1465C32.2858 34.1441 36.0628 34.6215 39.7818 35.579C43.5007 36.5364 47.1616 37.9664 50.7643 39.8689C52.4494 40.7918 53.801 42.1308 54.8191 43.8856C55.8371 45.6405 56.345 47.5627 56.3427 49.6523V52.6057C56.3427 54.6363 55.6605 56.3751 54.2961 57.8223C52.9317 59.2695 51.2896 59.9919 49.3697 59.9894H7.53161C5.61403 59.9894 3.97305 59.2671 2.60866 57.8223C1.24427 56.3776 0.560918 54.6387 0.558594 52.6057ZM7.53161 52.6057H49.3697V49.6523C49.3697 48.9754 49.2105 48.3601 48.892 47.8064C48.5736 47.2526 48.1517 46.8219 47.6264 46.5142C44.4886 44.8529 41.3217 43.6075 38.1257 42.7781C34.9297 41.9486 31.7047 41.5327 28.4506 41.5302C25.1966 41.5278 21.9716 41.9437 18.7756 42.7781C15.5796 43.6124 12.4127 44.8578 9.27486 46.5142C8.75188 46.8219 8.33002 47.2526 8.00926 47.8064C7.6885 48.3601 7.52928 48.9754 7.53161 49.6523V52.6057ZM28.4506 23.071C30.3682 23.071 32.0104 22.3486 33.3771 20.9039C34.7438 19.4591 35.426 17.7203 35.4237 15.6873C35.4213 13.6543 34.7391 11.9167 33.3771 10.4744C32.015 9.03213 30.3729 8.30853 28.4506 8.30361C26.5284 8.29869 24.8874 9.02229 23.5277 10.4744C22.168 11.9265 21.4846 13.6642 21.4776 15.6873C21.4707 17.7104 22.154 19.4493 23.5277 20.9039C24.9014 22.3585 26.5424 23.0808 28.4506 23.071Z" fill="#E6E6E6"/>
</svg>
