<svg width="94" height="100" viewBox="0 0 94 100" fill="none" xmlns="http://www.w3.org/2000/svg">
<path d="M46.9423 62.6652C53.4731 62.6652 58.7674 57.0591 58.7674 50.1436C58.7674 43.2282 53.4731 37.6221 46.9423 37.6221C40.4115 37.6221 35.1173 43.2282 35.1173 50.1436C35.1173 57.0591 40.4115 62.6652 46.9423 62.6652Z" stroke="#1E1E1E" stroke-width="7.01674" stroke-linecap="round" stroke-linejoin="round"/>
<path d="M76.1108 62.6652C75.5861 63.9241 75.4296 65.3205 75.6615 66.6745C75.8933 68.0285 76.5029 69.2779 77.4116 70.2615L77.6481 70.512C78.3811 71.2872 78.9625 72.2079 79.3592 73.2213C79.756 74.2347 79.9602 75.3209 79.9602 76.418C79.9602 77.515 79.756 78.6012 79.3592 79.6146C78.9625 80.628 78.3811 81.5487 77.6481 82.3239C76.9159 83.1001 76.0465 83.7158 75.0895 84.1359C74.1324 84.556 73.1066 84.7722 72.0706 84.7722C71.0346 84.7722 70.0088 84.556 69.0517 84.1359C68.0947 83.7158 67.2253 83.1001 66.4931 82.3239L66.2566 82.0735C65.3276 81.1113 64.1477 80.4658 62.8691 80.2203C61.5904 79.9748 60.2716 80.1405 59.0827 80.6961C57.9169 81.2252 56.9226 82.1037 56.2223 83.2235C55.5219 84.3433 55.1461 85.6555 55.141 86.9986V87.7082C55.141 89.9221 54.3105 92.0454 52.832 93.6109C51.3536 95.1764 49.3485 96.0559 47.2577 96.0559C45.1669 96.0559 43.1617 95.1764 41.6833 93.6109C40.2048 92.0454 39.3743 89.9221 39.3743 87.7082V87.3325C39.3438 85.951 38.9215 84.6112 38.1623 83.4872C37.4031 82.3632 36.3421 81.507 35.1173 81.03C33.9284 80.4744 32.6096 80.3087 31.3309 80.5542C30.0522 80.7997 28.8724 81.4452 27.9434 82.4074L27.7069 82.6578C26.9747 83.434 26.1053 84.0497 25.1483 84.4698C24.1912 84.8899 23.1654 85.1061 22.1294 85.1061C21.0934 85.1061 20.0676 84.8899 19.1105 84.4698C18.1535 84.0497 17.2841 83.434 16.5519 82.6578C15.8189 81.8826 15.2375 80.9619 14.8407 79.9485C14.444 78.9351 14.2398 77.8489 14.2398 76.7519C14.2398 75.6548 14.444 74.5686 14.8407 73.5552C15.2375 72.5418 15.8189 71.6211 16.5519 70.8459L16.7884 70.5954C17.6971 69.6118 18.3067 68.3624 18.5385 67.0084C18.7704 65.6544 18.6139 64.258 18.0892 62.9991C17.5895 61.7646 16.7598 60.7117 15.7023 59.9701C14.6448 59.2286 13.4056 58.8306 12.1372 58.8252H11.4671C9.37632 58.8252 7.37115 57.9457 5.89273 56.3803C4.41431 54.8148 3.58374 52.6915 3.58374 50.4776C3.58374 48.2636 4.41431 46.1404 5.89273 44.5749C7.37115 43.0094 9.37632 42.1299 11.4671 42.1299H11.8219C13.1265 42.0976 14.3919 41.6504 15.4533 40.8465C16.5148 40.0426 17.3233 38.9191 17.7738 37.6221C18.2985 36.3632 18.455 34.9668 18.2232 33.6128C17.9913 32.2588 17.3818 31.0094 16.4731 30.0258L16.2366 29.7753C15.5036 29.0001 14.9221 28.0794 14.5254 27.066C14.1287 26.0526 13.9245 24.9664 13.9245 23.8693C13.9245 22.7723 14.1287 21.6861 14.5254 20.6727C14.9221 19.6593 15.5036 18.7386 16.2366 17.9634C16.9687 17.1872 17.8382 16.5715 18.7952 16.1514C19.7522 15.7313 20.7781 15.5151 21.8141 15.5151C22.8501 15.5151 23.8759 15.7313 24.8329 16.1514C25.7899 16.5715 26.6594 17.1872 27.3915 17.9634L27.628 18.2138C28.557 19.176 29.7369 19.8215 31.0156 20.067C32.2942 20.3125 33.613 20.1468 34.8019 19.5912H35.1173C36.2831 19.0621 37.2774 18.1836 37.9777 17.0638C38.6781 15.944 39.0539 14.6318 39.0589 13.2887V12.5791C39.0589 10.3652 39.8895 8.24191 41.3679 6.67642C42.8464 5.11093 44.8515 4.23145 46.9423 4.23145C49.0331 4.23145 51.0383 5.11093 52.5167 6.67642C53.9951 8.24191 54.8257 10.3652 54.8257 12.5791V12.9548C54.8308 14.2978 55.2066 15.6101 55.9069 16.7299C56.6073 17.8497 57.6016 18.7282 58.7674 19.2573C59.9563 19.8129 61.2751 19.9786 62.5537 19.7331C63.8324 19.4876 65.0123 18.8421 65.9413 17.8799L66.1778 17.6295C66.9099 16.8533 67.7794 16.2376 68.7364 15.8175C69.6934 15.3974 70.7193 15.1812 71.7553 15.1812C72.7913 15.1812 73.8171 15.3974 74.7741 15.8175C75.7311 16.2376 76.6006 16.8533 77.3327 17.6295C78.0657 18.4047 78.6472 19.3254 79.0439 20.3388C79.4406 21.3522 79.6448 22.4384 79.6448 23.5354C79.6448 24.6325 79.4406 25.7187 79.0439 26.7321C78.6472 27.7455 78.0657 28.6661 77.3327 29.4414L77.0962 29.6918C76.1875 30.6755 75.578 31.9249 75.3461 33.2789C75.1143 34.6329 75.2708 36.0293 75.7955 37.2882V37.6221C76.2951 38.8566 77.1248 39.9095 78.1823 40.6511C79.2398 41.3927 80.4791 41.7906 81.7474 41.796H82.4175C84.5083 41.796 86.5135 42.6755 87.9919 44.241C89.4703 45.8064 90.3009 47.9297 90.3009 50.1436C90.3009 52.3576 89.4703 54.4809 87.9919 56.0463C86.5135 57.6118 84.5083 58.4913 82.4175 58.4913H82.0628C80.7944 58.4967 79.5552 58.8946 78.4977 59.6362C77.4401 60.3778 76.6105 61.4307 76.1108 62.6652Z" stroke="#1E1E1E" stroke-width="7.01674" stroke-linecap="round" stroke-linejoin="round"/>
</svg>
